HIERARCHY
ROOT Pelvis
{
	OFFSET 0.000000 0.000000 0.000000
	CHANNELS 6 Xposition Yposition Zposition Xrotation Yrotation Zrotation
	JOINT LeftUpLeg_virtual
	{
		OFFSET 0.000000 0.000000 0.000000
		CHANNELS 3 Xrotation Yrotation Zrotation
		JOINT LeftUpLeg
		{
			OFFSET 18.735201 -5.666702 -4.541200
			CHANNELS 3 Xrotation Yrotation Zrotation
			JOINT LeftLeg
			{
				OFFSET -0.021200 -31.938179 0.493100
				CHANNELS 3 Xrotation Yrotation Zrotation
				JOINT LeftFoot
				{
					OFFSET 0.021200 -31.938179 -4.336299
					CHANNELS 3 Xrotation Yrotation Zrotation
					JOINT LeftToeBase
					{
						OFFSET 0.943001 -26.722000 15.023500
						CHANNELS 3 Xrotation Yrotation Zrotation
						End Site
						{
							OFFSET 0 0 0
						}
					}
				}
			}
		}
	}
	JOINT RightUpLeg_virtual
	{
		OFFSET 0.000000 0.000000 0.000000
		CHANNELS 3 Xrotation Yrotation Zrotation
		JOINT RightUpLeg
		{
			OFFSET -18.735201 -5.666702 -4.541200
			CHANNELS 3 Xrotation Yrotation Zrotation
			JOINT RightLeg
			{
				OFFSET 0.018946 -31.938133 0.493100
				CHANNELS 3 Xrotation Yrotation Zrotation
				JOINT RightFoot
				{
					OFFSET -0.018946 -31.938126 -4.336299
					CHANNELS 3 Xrotation Yrotation Zrotation
					JOINT RightToeBase
					{
						OFFSET -0.943001 -26.722004 15.023500
						CHANNELS 3 Xrotation Yrotation Zrotation
						End Site
						{
							OFFSET 0 0 0
						}
					}
				}
			}
		}
	}
	JOINT Hips_virtual
	{
		OFFSET 0.000000 0.000000 0.000000
		CHANNELS 3 Xrotation Yrotation Zrotation
		JOINT Hips
		{
			OFFSET -0.000000 -0.000000 -0.000000
			CHANNELS 3 Xrotation Yrotation Zrotation
			JOINT Spine
			{
				OFFSET 0.000000 10.199997 -0.299500
				CHANNELS 3 Xrotation Yrotation Zrotation
				JOINT Spine1
				{
					OFFSET 0.000000 11.900002 -1.516600
					CHANNELS 3 Xrotation Yrotation Zrotation
					JOINT Spine2
					{
						OFFSET 0.000000 13.600006 -2.842500
						CHANNELS 3 Xrotation Yrotation Zrotation
						JOINT Neck_virtual
						{
							OFFSET 0.000000 0.000000 0.000000
							CHANNELS 3 Xrotation Yrotation Zrotation
							JOINT Neck
							{
								OFFSET 0.000000 9.624100 -2.890100
								CHANNELS 3 Xrotation Yrotation Zrotation
								JOINT Head
								{
									OFFSET 0.000000 14.068802 -1.351900
									CHANNELS 3 Xrotation Yrotation Zrotation
									End Site
									{
										OFFSET 0 0 0
									}
								}
							}
						}
						JOINT LeftShoulder_virtual
						{
							OFFSET 0.000000 0.000000 0.000000
							CHANNELS 3 Xrotation Yrotation Zrotation
							JOINT LeftShoulder
							{
								OFFSET 15.263000 10.923401 -0.547700
								CHANNELS 3 Xrotation Yrotation Zrotation
								JOINT LeftArm
								{
									OFFSET 25.438599 -2.830597 -13.032500
									CHANNELS 3 Xrotation Yrotation Zrotation
									JOINT LeftForeArm
									{
										OFFSET 29.960503 0.000000 0.000000
										CHANNELS 3 Xrotation Yrotation Zrotation
										JOINT LeftHand
										{
											OFFSET 27.849251 0.000000 0.000000
											CHANNELS 3 Xrotation Yrotation Zrotation
											End Site
											{
												OFFSET 0 0 0
											}
										}
									}
								}
							}
						}
						JOINT RightShoulder_virtual
						{
							OFFSET 0.000000 0.000000 0.000000
							CHANNELS 3 Xrotation Yrotation Zrotation
							JOINT RightShoulder
							{
								OFFSET -15.263000 10.923401 -0.547700
								CHANNELS 3 Xrotation Yrotation Zrotation
								JOINT RightArm
								{
									OFFSET -25.438599 -2.830597 -13.032500
									CHANNELS 3 Xrotation Yrotation Zrotation
									JOINT RightForeArm
									{
										OFFSET -29.960503 0.000000 0.000000
										CHANNELS 3 Xrotation Yrotation Zrotation
										JOINT RightHand
										{
											OFFSET -27.849251 0.000000 0.000000
											CHANNELS 3 Xrotation Yrotation Zrotation
											End Site
											{
												OFFSET 0 0 0
											}
										}
									}
								}
							}
						}
					}
				}
			}
		}
	}
}
MOTION
Frames: 11
Frame Time: 0.03333333
-33.873978 91.987846 -28.590338 0.000000 0.000000 0.000000 4.540998 -19.919808 0.702775 -37.646971 5.433417 16.767245 58.123496 10.679761 -3.623191 3.962648 11.984279 -2.477300 0.000000 0.000000 0.000000 15.813896 1.052760 2.293354 -7.360695 -6.828789 -11.309282 28.957010 -1.485254 1.265279 -20.786690 -6.402272 11.792917 0.000000 0.000000 0.000000 2.177856 2.990908 -0.304074 -0.854972 4.919215 -3.686893 3.604384 2.189294 -4.292781 0.280249 1.884374 -2.060150 0.000000 0.000000 0.000000 4.046129 1.284148 -0.963374 -0.827316 0.480419 0.316247 0.000000 0.000000 0.000000 2.700387 2.156205 -1.416903 0.934944 -0.954964 -7.060530 -11.747753 12.653662 -42.557341 -3.809875 -31.148518 -0.466303 0.000000 0.000000 0.000000 3.707942 0.926747 -0.492259 1.304025 -0.404563 8.854961 -5.783254 -22.345280 33.086925 -2.565188 25.444376 1.442470 0.000000 0.000000 0.000000 
-33.676872 92.301880 -29.031359 0.000000 0.000000 0.000000 5.691155 -19.449023 1.249933 -36.240390 5.624862 17.157048 58.465299 11.477098 -3.436457 4.047536 12.678047 -1.497513 0.000000 0.000000 0.000000 15.760366 1.238408 1.973294 -7.384750 -6.726175 -11.614142 29.267859 -0.759535 1.482152 -20.465123 -5.835823 12.586340 0.000000 0.000000 0.000000 2.563281 3.430068 -0.331786 -0.849965 3.491347 -3.574602 3.511361 2.632638 -4.427240 0.289860 2.120478 -2.195147 0.000000 0.000000 0.000000 4.071746 1.532412 -1.023329 -0.895516 0.486548 0.359794 0.000000 0.000000 0.000000 2.765382 2.519485 -1.595236 1.009856 -0.448522 -7.346676 -8.426163 14.074514 -44.183428 -3.044884 -29.213716 -0.395829 0.000000 0.000000 0.000000 3.680249 1.184776 -0.653822 1.113130 -0.094802 8.828694 -6.342869 -21.535194 32.343169 -2.529426 25.200227 1.241072 0.000000 0.000000 0.000000 
-33.417809 92.546242 -29.415564 0.000000 0.000000 0.000000 6.818255 -18.858453 1.767008 -34.840481 5.856189 17.544471 58.761511 12.245753 -3.251483 4.090889 13.341619 -0.543215 0.000000 0.000000 0.000000 15.758517 1.453328 1.635772 -7.346461 -6.622407 -11.935204 29.558156 -0.030008 1.711161 -20.177562 -5.269909 13.405267 0.000000 0.000000 0.000000 2.968928 3.828656 -0.348288 -0.765581 2.167809 -3.477410 3.402114 3.040875 -4.508066 0.294469 2.331394 -2.302900 0.000000 0.000000 0.000000 4.080808 1.755679 -1.063469 -0.969384 0.488489 0.403401 0.000000 0.000000 0.000000 2.787511 2.862024 -1.740980 1.054761 0.052507 -7.527322 -5.262557 15.506411 -45.647042 -2.340142 -27.135770 -0.313195 0.000000 0.000000 0.000000 3.643988 1.413619 -0.796690 0.931819 0.158255 8.834429 -6.873779 -20.865699 31.640165 -2.508173 24.883533 1.034359 0.000000 0.000000 0.000000 
-33.082653 92.714546 -29.757000 0.000000 0.000000 0.000000 7.882234 -18.136130 2.254681 -33.493940 6.117993 17.939338 58.965570 12.919962 -3.078156 4.076753 13.915951 0.309765 0.000000 0.000000 0.000000 15.808208 1.724353 1.288948 -7.245960 -6.511444 -12.258882 29.801457 0.655485 1.948859 -19.943910 -4.749819 14.212663 0.000000 0.000000 0.000000 3.389804 4.211359 -0.353419 -0.610810 1.034833 -3.388888 3.274033 3.397988 -4.532039 0.292253 2.509223 -2.380486 0.000000 0.000000 0.000000 4.070392 1.944566 -1.083208 -1.048741 0.483082 0.446198 0.000000 0.000000 0.000000 2.765003 3.169973 -1.851487 1.065499 0.509680 -7.602384 -2.355934 16.950291 -46.931599 -1.729066 -24.955431 -0.231677 0.000000 0.000000 0.000000 3.599547 1.605335 -0.917542 0.764237 0.338847 8.871705 -7.368887 -20.335862 30.988510 -2.500470 24.511753 0.827558 0.000000 0.000000 0.000000 
-32.655724 92.797684 -30.068216 0.000000 0.000000 0.000000 8.854137 -17.293933 2.721060 -32.236007 6.395530 18.353780 59.041760 13.433272 -2.922233 4.000690 14.340501 0.990914 0.000000 0.000000 0.000000 15.905986 2.070011 0.940201 -7.088948 -6.388763 -12.573925 29.974067 1.250324 2.189688 -19.779780 -4.318826 14.967948 0.000000 0.000000 0.000000 3.820030 4.601630 -0.348002 -0.395014 0.165089 -3.302775 3.124832 3.690720 -4.500298 0.281468 2.647821 -2.427347 0.000000 0.000000 0.000000 4.037564 2.091197 -1.084032 -1.133365 0.467577 0.486822 0.000000 0.000000 0.000000 2.700269 3.431690 -1.925965 1.041546 0.889788 -7.576433 0.223321 18.401657 -48.022008 -1.230316 -22.715447 -0.157224 0.000000 0.000000 0.000000 3.546531 1.753713 -1.015115 0.613518 0.434504 8.934789 -7.817414 -19.936960 30.397972 -2.503321 24.106944 0.625904 0.000000 0.000000 0.000000 
-32.121712 92.784248 -30.360672 0.000000 0.000000 0.000000 9.718254 -16.359065 3.178529 -31.087480 6.672928 18.799361 58.968363 13.724070 -2.790166 3.867591 14.560317 1.434071 0.000000 0.000000 0.000000 16.045298 2.499187 0.595329 -6.886561 -6.251580 -12.872605 30.057210 1.713594 2.426638 -19.695689 -4.013753 15.631544 0.000000 0.000000 0.000000 4.252852 5.019226 -0.333694 -0.128870 -0.387634 -3.213962 2.952879 3.909724 -4.418203 0.260587 2.743280 -2.445270 0.000000 0.000000 0.000000 3.979570 2.189808 -1.069090 -1.223127 0.439848 0.523661 0.000000 0.000000 0.000000 2.599219 3.638781 -1.965741 0.985901 1.168358 -7.459590 2.434165 19.850312 -48.907310 -0.849512 -20.459350 -0.090493 0.000000 0.000000 0.000000 3.484012 1.854790 -1.090068 0.481431 0.437256 9.013983 -8.207794 -19.654694 29.876818 -2.512776 23.693644 0.434442 0.000000 0.000000 0.000000 
-31.467216 92.662857 -30.645256 0.000000 0.000000 0.000000 10.471401 -15.362822 3.638782 -30.055322 6.937657 19.283895 58.737434 13.742312 -2.693421 3.685539 14.533345 1.578150 0.000000 0.000000 0.000000 16.216812 3.010945 0.258010 -6.654842 -6.098820 -13.151386 30.038953 2.014366 2.652116 -19.696679 -3.860930 16.169776 0.000000 0.000000 0.000000 4.680733 5.477964 -0.312683 0.174669 -0.592208 -3.118906 2.757729 4.050311 -4.294667 0.228589 2.794185 -2.438068 0.000000 0.000000 0.000000 3.894110 2.237277 -1.042604 -1.318066 0.398664 0.555128 0.000000 0.000000 0.000000 2.470178 3.786675 -1.974292 0.904438 1.331555 -7.267847 4.261058 21.280250 -49.583103 -0.582587 -18.231371 -0.029442 0.000000 0.000000 0.000000 3.410999 1.907185 -1.144544 0.368193 0.344779 9.097701 -8.531290 -19.471022 29.431275 -2.525198 23.297594 0.257876 0.000000 0.000000 0.000000 
-30.681467 92.425659 -30.932299 0.000000 0.000000 0.000000 11.121006 -14.329056 4.108036 -29.135128 7.184402 19.809237 58.352697 13.456943 -2.650698 3.458375 14.237440 1.370989 0.000000 0.000000 0.000000 16.408857 3.595611 -0.070357 -6.413915 -5.930816 -13.410987 29.915761 2.134967 2.858719 -19.782224 -3.873223 16.558931 0.000000 0.000000 0.000000 5.095728 5.984205 -0.287294 0.500413 -0.441713 -3.015350 2.540590 4.112805 -4.140953 0.185241 2.801669 -2.410958 0.000000 0.000000 0.000000 3.779658 2.233497 -1.009206 -1.418356 0.343930 0.579909 0.000000 0.000000 0.000000 2.322697 3.874715 -1.956958 0.804885 1.376500 -7.022354 5.707893 22.670178 -50.053030 -0.419418 -16.076474 0.028451 0.000000 0.000000 0.000000 3.326933 1.912246 -1.181562 0.272531 0.161226 9.174747 -8.785222 -19.365138 29.065259 -2.538342 22.945421 0.100470 0.000000 0.000000 0.000000 
-29.756338 92.072227 -31.230936 0.000000 0.000000 0.000000 11.683359 -13.265356 4.584275 -28.313786 7.417445 20.370913 57.826676 12.862288 -2.687025 3.180173 13.675914 0.775999 0.000000 0.000000 0.000000 16.607955 4.237123 -0.390290 -6.186855 -5.748830 -13.655632 29.693694 2.072528 3.039712 -19.945997 -4.048716 16.787406 0.000000 0.000000 0.000000 5.490102 6.536347 -0.259597 0.832466 0.047400 -2.901545 2.304497 4.102452 -3.969042 0.131248 2.769262 -2.369723 0.000000 0.000000 0.000000 3.635774 2.181476 -0.973293 -1.524134 0.276823 0.597173 0.000000 0.000000 0.000000 2.166425 3.905837 -1.920358 0.695626 1.310292 -6.747640 6.791672 23.994829 -50.329007 -0.346855 -14.039837 0.084798 0.000000 0.000000 0.000000 3.232019 1.873936 -1.204396 0.191956 -0.102685 9.236305 -8.974597 -19.313900 28.780860 -2.551917 22.664945 -0.033920 0.000000 0.000000 0.000000 
-28.686085 91.612587 -31.548063 0.000000 0.000000 0.000000 12.182189 -12.160267 5.057367 -27.571213 7.650646 20.959419 57.177679 11.981474 -2.829767 2.834020 12.880261 -0.220042 0.000000 0.000000 0.000000 16.799467 4.916284 -0.703319 -5.998252 -5.554437 -13.891533 29.389464 1.838416 3.189018 -20.175204 -4.371309 16.855315 0.000000 0.000000 0.000000 5.857066 7.125359 -0.231080 1.156877 0.838097 -2.775386 2.054165 4.028823 -3.789915 0.068257 2.702512 -2.319800 0.000000 0.000000 0.000000 3.463454 2.087094 -0.938517 -1.635200 0.199732 0.606698 0.000000 0.000000 0.000000 2.010186 3.885907 -1.871615 0.584543 1.148035 -6.469067 7.537181 25.227034 -50.430251 -0.350809 -12.165620 0.139753 0.000000 0.000000 0.000000 3.127313 1.798429 -1.216063 0.123236 -0.430586 9.277339 -9.111336 -19.291909 28.579742 -2.567438 22.485592 -0.141590 0.000000 0.000000 0.000000 
-27.467476 91.068588 -31.887325 0.000000 0.000000 0.000000 12.646742 -10.988693 5.511702 -26.881787 7.904473 21.562243 56.425829 10.865421 -3.102336 2.395363 11.908914 -1.600095 0.000000 0.000000 0.000000 16.968205 5.614156 -1.010676 -5.872594 -5.349031 -14.124846 29.031501 1.455541 3.300668 -20.449349 -4.813142 16.771560 0.000000 0.000000 0.000000 6.191282 7.736150 -0.202430 1.464390 1.876796 -2.634021 1.795641 3.904731 -3.612047 -0.001248 2.608393 -2.265493 0.000000 0.000000 0.000000 3.265496 1.958472 -0.907428 -1.750665 0.116005 0.608921 0.000000 0.000000 0.000000 1.861376 3.822794 -1.817558 0.478130 0.910162 -6.210117 7.973297 26.339837 -50.381681 -0.417403 -10.495127 0.192029 0.000000 0.000000 0.000000 3.014637 1.693429 -1.218951 0.062965 -0.802366 9.297309 -9.211166 -19.271797 28.465268 -2.587430 22.438300 -0.218581 0.000000 0.000000 0.000000 
